<?xml version="1.0" encoding="UTF-8"?>
<!-- NextPort Hub – BIMI icon (SVG Tiny 1.2, fully vector) -->
<svg xmlns="http://www.w3.org/2000/svg" version="1.2" baseProfile="tiny"
     width="512" height="512" viewBox="0 0 512 512">
  <!-- Брендовый круг -->
  <circle cx="256" cy="256" r="220" fill="#c23a2a"/>
  <!-- Внутренний круг (слоновая кость) -->
  <circle cx="256" cy="256" r="200" fill="#f1e5cf"/>
  <!-- Волны -->
  <path d="M80 332
           c28 18 56 18 84 0
           c28 -18 56 -18 84 0
           c28 18 56 18 84 0
           c28 -18 56 -18 84 0
           v40 h-336 z"
        fill="#0f2a40" />
  <!-- Корпус судна -->
  <path d="M138 322
           c95 10 190 10 254 -6
           c-7 16 -24 30 -48 36
           c-74 18 -165 18 -214 4
           c-12 -4 -16 -17 8 -34 z"
        fill="#0f2a40"/>
  <!-- Лёгкая блик-линия корпуса -->
  <path d="M188 340 c64 6 128 6 190 -7
           c-8 9 -16 15 -26 18
           c-60 13 -124 13 -162 5
           c-7 -2 -8 -7 -2 -16 z"
        fill="#1a3b57"/>
  <!-- Надстройка и контейнеры -->
  <rect x="196" y="280" width="62" height="26" fill="#0f2a40"/>
  <rect x="264" y="272" width="58" height="24" fill="#0f2a40"/>
  <rect x="264" y="296" width="58" height="18" fill="#0f2a40"/>
  <rect x="326" y="282" width="50" height="22" fill="#0f2a40"/>
  <!-- Мачта и флаг -->
  <rect x="352" y="260" width="6" height="40" fill="#0f2a40"/>
  <path d="M358 262 l30 8 l-30 10 z" fill="#0f2a40"/>
</svg>
