<?xml version="1.0" encoding="UTF-8"?>
<!-- NextPort Hub – BIMI-ready logo (SVG Tiny 1.2–compatible, flat vectors only) -->
<svg xmlns="http://www.w3.org/2000/svg" version="1.2" baseProfile="tiny"
     width="512" height="512" viewBox="0 0 512 512">
  <defs>
    <title>NextPort Hub</title>
  </defs>

  <!-- Background (transparent for BIMI) -->

  <!-- Brand circle -->
  <circle cx="256" cy="256" r="200" fill="#c23a2a"/>

  <!-- Inner circle as 'paper' tone to echo vintage style -->
  <circle cx="256" cy="256" r="180" fill="#f1e5cf"/>

  <!-- Waves -->
  <path d="M96 340
           c30 18 60 18 90 0
           c30 -18 60 -18 90 0
           c30 18 60 18 90 0
           c30 -18 60 -18 90 0
           v35 h-360 z"
        fill="#0f2a40" />

  <!-- Ship hull -->
  <path d="M150 320
           c85 10 170 10 230 -5
           c-5 15 -20 30 -40 35
           c-70 18 -150 18 -190 5
           c-12 -4 -20 -17 -0 -35 z"
        fill="#0f2a40"/>

  <!-- Bow line highlight -->
  <path d="M195 338 c60 6 120 6 177 -6
           c-6 8 -14 14 -23 17
           c-58 12 -116 12 -154 4
           c-6 -2 -8 -7 0 -15 z"
        fill="#1a3b57"/>

  <!-- Bridge / superstructure block -->
  <path d="M210 285 h65 v22 h-65 z" fill="#0f2a40"/>
  <path d="M280 275 h70 v28 h-70 z" fill="#0f2a40"/>

  <!-- Container stacks -->
  <rect x="190" y="255" width="55" height="28" fill="#0f2a40"/>
  <rect x="250" y="248" width="55" height="28" fill="#0f2a40"/>
  <rect x="250" y="276" width="55" height="20" fill="#0f2a40"/>
  <rect x="310" y="260" width="55" height="24" fill="#0f2a40"/>

  <!-- Mast & flag -->
  <rect x="355" y="240" width="6" height="45" fill="#0f2a40"/>
  <path d="M361 242
           l28 8
           l-28 10
           z" fill="#0f2a40"/>

  <!-- Cutout to keep ship inside inner circle (mask effect by overlay) -->
  <circle cx="256" cy="256" r="180" fill="none" stroke="#f1e5cf" stroke-width="0"/>

  <!-- Text as vector paths: 'NEXTPORT HUB' -->
  <!-- We draw a minimal geometric wordmark to avoid font dependency -->
  <g transform="translate(70,398) scale(0.9)" fill="#c23a2a">
    <!-- N -->
    <path d="M0 0 h18 v34 l24 -34 h18 v70 h-18 v-34 l-24 34 h-18 z"/>
    <!-- E -->
    <path d="M92 0 h38 v14 h-22 v12 h18 v12 h-18 v14 h22 v14 h-38 z"/>
    <!-- X -->
    <path d="M150 0 h18 l14 20 l14 -20 h18 l-22 32 l22 38 h-18 l-14 -22 l-14 22 h-18 l22 -38 z"/>
    <!-- T -->
    <path d="M240 0 h44 v14 h-13 v56 h-18 v-56 h-13 z"/>
    <!-- P -->
    <path d="M298 0 h32 c16 0 26 10 26 23 c0 13 -10 23 -26 23 h-14 v24 h-18 z
             M316 14 v18 h14 c6 0 10 -4 10 -9 s-4 -9 -10 -9 z"/>
    <!-- O -->
    <path d="M372 35 c0 -22 16 -37 36 -37 s36 15 36 37 s-16 37 -36 37 s-36 -15 -36 -37 z
             M390 35 c0 12 7 21 18 21 s18 -9 18 -21 s-7 -21 -18 -21 s-18 9 -18 21 z"/>
    <!-- R -->
    <path d="M458 0 h30 c16 0 26 10 26 23 c0 11 -7 20 -18 22 l20 25 h-20 l-18 -23 h-2 v23 h-18 z
             M476 14 v18 h12 c6 0 10 -4 10 -9 s-4 -9 -10 -9 z"/>
    <!-- T -->
    <path d="M540 0 h44 v14 h-13 v56 h-18 v-56 h-13 z"/>
  </g>

  <g transform="translate(180,460) scale(0.9)" fill="#c23a2a">
    <!-- HUB -->
    <!-- H -->
    <path d="M0 0 h18 v20 h18 v-20 h18 v70 h-18 v-34 h-18 v34 h-18 z"/>
    <!-- U -->
    <path d="M66 0 h18 v50 c0 6 4 10 10 10 s10 -4 10 -10 v-50 h18 v50 c0 16 -14 28 -28 28 s-28 -12 -28 -28 z"/>
    <!-- B -->
    <path d="M138 0 h30 c18 0 30 10 30 24 c0 8 -4 14 -10 18 c8 4 12 12 12 20 c0 15 -12 26 -32 26 h-30 z
             M156 14 v16 h12 c6 0 10 -4 10 -8 c0 -5 -4 -8 -10 -8 z
             M156 46 v16 h14 c8 0 12 -4 12 -8 c0 -6 -6 -8 -12 -8 z"/>
  </g>
</svg>
